<svg id="Group_3" data-name="Group 3" xmlns="http://www.w3.org/2000/svg" xmlns:xlink="http://www.w3.org/1999/xlink" width="249.951" height="100" viewBox="0 0 249.951 100">
  <defs>
    <clipPath id="clip-path">
      <rect id="Rectangle_1" data-name="Rectangle 1" width="249.951" height="100" fill="none"/>
    </clipPath>
  </defs>
  <path id="Path_1" data-name="Path 1" d="M10.648,37.209,20.412.856H49.661L47.224,9.793H28.365l-1.354,4.949H44.125l-2.23,8.323H24.778l-1.407,5.207H42.537l-2.384,8.937Z" fill="#659427"/>
  <path id="Path_2" data-name="Path 2" d="M49.346,1.1,47.04,9.553H28.181l-1.486,5.43H43.811l-2.1,7.842H24.594l-1.538,5.688H42.223l-2.255,8.456H10.962L20.6,1.1Zm.63-.481H20.227l-.095.357L10.5,36.844l-.163.606h30l.095-.357,2.255-8.456.162-.6H23.685l1.278-4.726H42.08l.095-.357,2.1-7.841.162-.606H27.326l1.222-4.468h18.86l.1-.355L49.81,1.224Z" fill="#5b790f"/>
  <path id="Path_3" data-name="Path 3" d="M69.347,37.209,65.126,26.356,55.578,37.209h-12.7L60.618,18.164,53.106.856H64.552l3.861,9.88L77.089.856H89.744L72.87,18.979l7.976,18.23Z" transform="translate(-1.546)" fill="#659427"/>
  <path id="Path_4" data-name="Path 4" d="M89.191,1.1,72.587,18.93l7.891,18.039H69.512L65.207,25.9,55.47,36.969H43.427L60.9,18.213,53.473,1.1H64.388l3.945,10.1L77.2,1.1ZM90.3.616H76.98L76.836.78l-8.343,9.5L64.836.922l-.12-.306H52.739l.292.673,7.3,16.826L43.074,36.64l-.754.81H55.687l.144-.163,9.214-10.474,4.018,10.33.119.307H81.214l-.295-.674L73.155,19.027l16.388-17.6Z" transform="translate(-1.534)" fill="#5b790f"/>
  <g id="Group_2" data-name="Group 2">
    <g id="Group_1" data-name="Group 1" clip-path="url(#clip-path)">
      <path id="Path_5" data-name="Path 5" d="M83.513,36.138,92.989.857h11.568c5.779,0,9.512,1.156,12.1,3.749a9.884,9.884,0,0,1,2.8,7.276c0,8.663-6.886,14.26-17.542,14.26h-5.54l-2.686,10Zm18.31-17.974c4.557,0,7.277-1.939,7.277-5.187a3.141,3.141,0,0,0-.927-2.271,5.354,5.354,0,0,0-3.963-1.276h-3.4l-2.314,8.735Z" transform="translate(-2.463 -0.025)" fill="#659427"/>
      <path id="Path_6" data-name="Path 6" d="M104.548,1.083c5.672,0,9.4,1.141,11.936,3.68a9.629,9.629,0,0,1,2.737,7.111c0,8.654-7.013,14.026-17.31,14.026H96.193l-2.686,10h-9.7L93.159,1.083ZM98.182,18.39h3.632c4.774,0,7.51-2.139,7.51-5.421a3.376,3.376,0,0,0-.995-2.436A5.593,5.593,0,0,0,104.2,9.188h-3.582l-2.437,9.2M104.548.616H92.8l-.092.346L83.357,35.775l-.158.589H93.866l.092-.346,2.593-9.65h5.36c10.8,0,17.777-5.689,17.777-14.494a10.109,10.109,0,0,0-2.873-7.441c-2.637-2.64-6.421-3.817-12.267-3.817m-3.57,9.039H104.2a5.135,5.135,0,0,1,3.8,1.208,2.906,2.906,0,0,1,.859,2.105c0,3.1-2.633,4.954-7.043,4.954H98.788Z" transform="translate(-2.454 -0.018)" fill="#5b790f"/>
      <path id="Path_7" data-name="Path 7" d="M138.72,36.137,134.1,25.594h-3.947l-2.834,10.543H117.131L126.607.856h13.31c5.689,0,9.664,1.21,12.152,3.7a10.007,10.007,0,0,1,2.754,7.276c0,6.152-3.672,10.578-10.351,12.488l5.408,11.818Zm-1.24-18.57c4.274,0,6.93-1.76,6.93-4.591a3.044,3.044,0,0,0-.834-2.18c-.739-.739-2.123-1.117-4.106-1.117h-5.044l-2.16,7.888Z" transform="translate(-3.455 -0.025)" fill="#659427"/>
      <path id="Path_8" data-name="Path 8" d="M139.907,1.083c5.82,0,9.649,1.291,11.988,3.631a9.755,9.755,0,0,1,2.686,7.111c0,5.821-3.333,10.4-10.445,12.335l5.37,11.736H138.863l-4.624-10.543H129.96L127.126,35.9h-9.7l9.351-34.813ZM131.95,17.794h5.52c4.327,0,7.163-1.841,7.163-4.825a3.275,3.275,0,0,0-.895-2.338c-.8-.8-2.239-1.192-4.278-1.192h-5.222l-2.288,8.355M139.907.616H126.419l-.093.346-9.351,34.813-.158.589h10.667l.093-.346,2.742-10.2h3.614l4.5,10.264.123.28h11.676l-.3-.662-5.144-11.242c6.623-1.98,10.26-6.45,10.26-12.635a10.243,10.243,0,0,0-2.822-7.441C149.691,1.849,145.662.616,139.907.616m-5.313,9.29h4.866c1.919,0,3.247.355,3.947,1.055a2.81,2.81,0,0,1,.758,2.008c0,2.688-2.565,4.358-6.7,4.358h-4.908Z" transform="translate(-3.445 -0.018)" fill="#5b790f"/>
      <path id="Path_9" data-name="Path 9" d="M153.716,36.137,163.192.856h28.385L189.213,9.53h-18.3l-1.315,4.8h16.611l-2.165,8.078h-16.61l-1.366,5.053h18.6l-2.315,8.673Z" transform="translate(-4.534 -0.025)" fill="#659427"/>
      <path id="Path_10" data-name="Path 10" d="M191.262,1.083l-2.237,8.207h-18.3l-1.443,5.27h16.613l-2.04,7.611h-16.61l-1.492,5.52h18.6L182.162,35.9H154.011l9.351-34.814Zm.611-.467H163l-.092.346L153.56,35.776l-.158.588h29.119l.092-.346,2.189-8.206.156-.588h-18.6l1.239-4.587h16.611l.093-.345,2.04-7.611.157-.588H169.892l1.187-4.336h18.3l.094-.345,2.236-8.206Z" transform="translate(-4.524 -0.018)" fill="#5b790f"/>
      <path id="Path_11" data-name="Path 11" d="M203.81,36.716c-6.689,0-12.489-2.287-16.335-6.44l-.149-.162,6.53-6.741.168.155c3.385,3.139,6.848,4.664,10.582,4.664,2.211,0,3.7-.945,3.7-2.353,0-1.154-.782-1.817-5.67-3.712-5.522-2.088-9.2-4.556-9.2-9.815,0-7,6.31-12.072,15-12.072,5.856,0,10.847,1.811,14.436,5.238l.164.156-6.273,7.005-.175-.15a13.556,13.556,0,0,0-9.047-3.773c-2.089,0-3.547.927-3.547,2.252,0,1.213.93,1.687,5.673,3.564,5.52,2.1,9.2,4.585,9.2,9.917,0,7.223-6.19,12.269-15.054,12.269" transform="translate(-5.525 -0.007)" fill="#659427"/>
      <path id="Path_12" data-name="Path 12" d="M208.426.467c6.117,0,10.941,1.99,14.275,5.173l-5.969,6.666a13.926,13.926,0,0,0-9.2-3.831c-2.339,0-3.779,1.095-3.779,2.485s1.044,1.891,5.819,3.78c5.372,2.04,9.051,4.477,9.051,9.7,0,7.16-6.167,12.035-14.822,12.035-6.812,0-12.434-2.338-16.163-6.366l6.217-6.418c3.382,3.135,6.913,4.726,10.743,4.726,2.287,0,3.93-1,3.93-2.586,0-1.343-.946-2.04-5.82-3.931-5.519-2.086-9.053-4.474-9.053-9.6,0-6.915,6.269-11.839,14.772-11.839m0-.467c-8.83,0-15.239,5.176-15.239,12.306,0,5.393,3.739,7.912,9.355,10.034,4.756,1.844,5.517,2.46,5.517,3.493,0,1.267-1.392,2.12-3.462,2.12-3.673,0-7.084-1.505-10.424-4.6l-.336-.311-.317.328L187.3,29.786l-.308.318.3.324c3.89,4.2,9.752,6.515,16.505,6.515,9,0,15.288-5.141,15.288-12.5,0-5.466-3.738-8.006-9.352-10.137-4.847-1.918-5.518-2.324-5.518-3.343,0-1.188,1.363-2.018,3.312-2.018a13.334,13.334,0,0,1,8.895,3.715l.347.3.307-.343,5.97-6.665.3-.338-.328-.313c-3.633-3.469-8.68-5.3-14.6-5.3" transform="translate(-5.515 0)" fill="#5b790f"/>
      <path id="Path_13" data-name="Path 13" d="M236.9,36.716c-6.688,0-12.489-2.287-16.337-6.44l-.15-.162,6.531-6.741.168.155c3.385,3.139,6.849,4.664,10.584,4.664,2.21,0,3.694-.945,3.694-2.353,0-1.154-.781-1.817-5.668-3.712-5.522-2.087-9.2-4.555-9.2-9.815,0-7,6.31-12.072,15.005-12.072,5.859,0,10.849,1.811,14.434,5.238l.164.156-6.271,7.005-.175-.15a13.566,13.566,0,0,0-9.049-3.773c-2.089,0-3.547.927-3.547,2.252,0,1.213.931,1.687,5.673,3.564,5.521,2.1,9.2,4.586,9.2,9.917,0,7.223-6.19,12.269-15.055,12.269" transform="translate(-6.501 -0.007)" fill="#659427"/>
      <path id="Path_14" data-name="Path 14" d="M241.519.467c6.117,0,10.942,1.99,14.273,5.173l-5.967,6.666a13.931,13.931,0,0,0-9.2-3.831c-2.335,0-3.779,1.095-3.779,2.485s1.044,1.891,5.819,3.78c5.372,2.04,9.053,4.477,9.053,9.7,0,7.16-6.169,12.035-14.822,12.035-6.814,0-12.434-2.338-16.165-6.366l6.217-6.418c3.382,3.135,6.913,4.726,10.744,4.726,2.287,0,3.928-1,3.928-2.586,0-1.343-.946-2.04-5.818-3.931-5.521-2.086-9.053-4.474-9.053-9.6,0-6.915,6.267-11.839,14.772-11.839m0-.467c-8.83,0-15.239,5.176-15.239,12.306,0,5.394,3.739,7.913,9.355,10.034,4.755,1.844,5.515,2.46,5.515,3.493,0,1.267-1.391,2.12-3.46,2.12-3.675,0-7.086-1.505-10.426-4.6l-.336-.311-.317.328-6.218,6.418-.308.318.3.325c3.892,4.2,9.755,6.514,16.507,6.514,9,0,15.288-5.141,15.288-12.5,0-5.465-3.739-8-9.354-10.137-4.847-1.918-5.518-2.324-5.518-3.343,0-1.188,1.363-2.018,3.312-2.018a13.344,13.344,0,0,1,8.9,3.715l.347.3.307-.343,5.968-6.665.3-.338-.326-.313c-3.63-3.469-8.676-5.3-14.6-5.3" transform="translate(-6.491 0)" fill="#5b790f"/>
      <path id="Path_15" data-name="Path 15" d="M240.2,44.207H8.005L0,74.043H232.194Z" transform="translate(0 -1.304)" fill="#003964"/>
      <path id="Path_16" data-name="Path 16" d="M21.79,64.022H15.182L14.75,61.1l9.8-8.79h4.219l-2.325,8.728h1.832l-.824,2.985H25.639l-.761,2.8h-3.83Zm.8-2.965,1.091-4.1-4.488,4.1Z" transform="translate(-0.435 -1.543)" fill="#fff"/>
      <path id="Path_17" data-name="Path 17" d="M34.851,59.289l-2.984-6.875h4.384l1.585,4.055L41.4,52.414h4.817l-6.669,7.163,3.171,7.247H38.31l-1.729-4.447-3.911,4.447H27.832Z" transform="translate(-0.821 -1.546)" fill="#fff"/>
      <path id="Path_18" data-name="Path 18" d="M50.987,64.022H44.379L43.947,61.1l9.8-8.79h4.219l-2.325,8.728h1.832l-.824,2.985H54.836l-.762,2.8H50.246Zm.8-2.965,1.091-4.1-4.488,4.1Z" transform="translate(-1.296 -1.543)" fill="#fff"/>
      <path id="Path_19" data-name="Path 19" d="M70.174,55.913H65.852l.946-3.5H79.416l-.926,3.5H74.168l-2.922,10.91H67.232Z" transform="translate(-1.942 -1.546)" fill="#fff"/>
      <path id="Path_20" data-name="Path 20" d="M81.36,52.414H86.8c2.408,0,3.994.537,4.96,1.5a4.034,4.034,0,0,1,1.112,2.944c0,2.408-1.379,4.3-4.323,5.1l2.223,4.858H86.363l-1.915-4.363h-1.77l-1.172,4.363H77.491Zm4.426,6.917c1.792,0,2.965-.762,2.965-2a1.356,1.356,0,0,0-.371-.969,2.493,2.493,0,0,0-1.77-.493H84.449L83.5,59.331Z" transform="translate(-2.285 -1.546)" fill="#fff"/>
      <path id="Path_21" data-name="Path 21" d="M94.264,62.047a9.309,9.309,0,0,1,.33-2.3l1.976-7.328H100.6l-2.037,7.617a5.026,5.026,0,0,0-.207,1.359,1.991,1.991,0,0,0,2.244,2.1,2.69,2.69,0,0,0,1.934-.762,4.882,4.882,0,0,0,1.215-2.388l2.141-7.925h4.034l-2.285,8.522a9.364,9.364,0,0,1-2.244,4.3,7.211,7.211,0,0,1-5.311,1.852c-3.705,0-5.826-1.872-5.826-5.044" transform="translate(-2.78 -1.546)" fill="#fff"/>
      <path id="Path_22" data-name="Path 22" d="M110.21,60.805a8.817,8.817,0,0,1,9-8.687,5.838,5.838,0,0,1,5.845,3.643l-3.458,1.854a3.01,3.01,0,0,0-2.9-1.854,4.611,4.611,0,0,0-4.3,4.755,2.767,2.767,0,0,0,2.88,2.965,4.164,4.164,0,0,0,3.088-1.462l2.7,2.386a7.645,7.645,0,0,1-6.031,2.7c-3.994,0-6.813-2.449-6.813-6.3" transform="translate(-3.25 -1.537)" fill="#fff"/>
      <path id="Path_23" data-name="Path 23" d="M128.158,52.414h4.015l-1.565,5.764,5.95-5.764h5.083l-6.794,6.32,3.211,8.09h-4.322l-2.08-5.558-2.49,2.285-.865,3.274h-4.014Z" transform="translate(-3.666 -1.546)" fill="#fff"/>
      <path id="Path_24" data-name="Path 24" d="M149.341,52.414h5.433c2.409,0,3.994.537,4.96,1.5a4.035,4.035,0,0,1,1.113,2.944c0,2.408-1.38,4.3-4.324,5.1l2.223,4.858h-4.405l-1.915-4.363h-1.768l-1.173,4.363h-4.015Zm4.425,6.917c1.792,0,2.965-.762,2.965-2a1.356,1.356,0,0,0-.37-.969,2.493,2.493,0,0,0-1.77-.493h-2.163l-.946,3.458Z" transform="translate(-4.29 -1.546)" fill="#fff"/>
      <path id="Path_25" data-name="Path 25" d="M164.607,52.414h11.547l-.927,3.4h-7.574l-.6,2.182h6.875l-.843,3.15h-6.875l-.617,2.285h7.7l-.905,3.4H160.737Z" transform="translate(-4.741 -1.546)" fill="#fff"/>
      <path id="Path_26" data-name="Path 26" d="M178.793,52.414h3.727l3.725,8.007,2.16-8.007h3.973l-3.868,14.41h-3.5l-3.892-8.3-2.223,8.3h-3.972Z" transform="translate(-5.159 -1.546)" fill="#fff"/>
      <path id="Path_27" data-name="Path 27" d="M197.842,55.913h-4.324l.947-3.5h12.618l-.927,3.5h-4.322l-2.922,10.91H194.9Z" transform="translate(-5.708 -1.546)" fill="#fff"/>
      <path id="Path_28" data-name="Path 28" d="M212.171,52.308h3.91l2.243,14.513h-4.2l-.35-2.575h-5.558l-1.728,2.575h-4.344Zm1.275,8.832L212.932,57l-2.7,4.138Z" transform="translate(-5.962 -1.543)" fill="#fff"/>
      <path id="Path_29" data-name="Path 29" d="M223.766,52.414h4.013l-2.923,10.91h6.875l-.946,3.5H219.9Z" transform="translate(-6.486 -1.546)" fill="#fff"/>
      <path id="Path_30" data-name="Path 30" d="M79.354,89.075h1.63l1.859,10.152H81.076l-.35-2.18H76.61l-1.173,2.18H73.7Zm1.158,6.57-.457-2.88c-.122-.747-.214-1.54-.244-1.845H79.78c-.121.3-.488,1.1-.884,1.845l-1.569,2.88Z" transform="translate(-2.174 -2.627)" fill="#003964"/>
      <path id="Path_31" data-name="Path 31" d="M87.4,98.247l.96-1.158a3.163,3.163,0,0,0,2.256.9c1.2,0,1.677-.625,1.677-1.387,0-.824-.534-1.205-1.586-2.074-.945-.808-1.859-1.615-1.859-2.987,0-1.753,1.372-2.653,3.171-2.653a4.057,4.057,0,0,1,2.622.824L93.8,90.944a2.747,2.747,0,0,0-1.845-.685c-.975,0-1.448.472-1.448,1.234,0,.733.534,1.143,1.464,1.907,1.006.823,2.012,1.6,2.012,3.094,0,1.57-1.1,2.911-3.444,2.911A4.4,4.4,0,0,1,87.4,98.247" transform="translate(-2.578 -2.622)" fill="#003964"/>
      <path id="Path_32" data-name="Path 32" d="M95.322,97.141c0-2.973,1.753-5.412,4.527-5.412a6.444,6.444,0,0,1,2.347.381l-.67,3.659a26.067,26.067,0,0,0-.457,3.537H99.514a14.784,14.784,0,0,1,.306-2.012h-.031c-.594,1.158-1.326,2.194-2.607,2.194-1.173,0-1.859-.915-1.859-2.348m5.03-3.49.077-.548A3.4,3.4,0,0,0,99.575,93c-1.525,0-2.621,1.753-2.621,3.886,0,.823.258,1.22.792,1.22,1.052,0,2.181-1.966,2.607-4.451" transform="translate(-2.811 -2.705)" fill="#003964"/>
      <path id="Path_33" data-name="Path 33" d="M102.567,98.726l.732-1.1a2.5,2.5,0,0,0,1.615.609c.686,0,1.052-.335,1.052-.838,0-.518-.457-.9-1.143-1.616a2.858,2.858,0,0,1-1.067-2.027c0-1.22.944-2.027,2.484-2.027a3.1,3.1,0,0,1,1.982.609l-.732,1.067a2.125,2.125,0,0,0-1.28-.427c-.565,0-.93.26-.93.747,0,.427.365.747.975,1.388.777.808,1.311,1.326,1.311,2.287,0,1.219-.915,2.088-2.668,2.088a3.553,3.553,0,0,1-2.332-.762" transform="translate(-3.025 -2.705)" fill="#003964"/>
      <path id="Path_34" data-name="Path 34" d="M108.492,98.726l.732-1.1a2.5,2.5,0,0,0,1.615.609c.687,0,1.052-.335,1.052-.838,0-.518-.457-.9-1.143-1.616a2.855,2.855,0,0,1-1.067-2.027c0-1.22.945-2.027,2.484-2.027a3.1,3.1,0,0,1,1.982.609l-.732,1.067a2.125,2.125,0,0,0-1.28-.427c-.565,0-.93.26-.93.747,0,.427.365.747.975,1.388.777.808,1.311,1.326,1.311,2.287,0,1.219-.915,2.088-2.668,2.088a3.553,3.553,0,0,1-2.332-.762" transform="translate(-3.2 -2.705)" fill="#003964"/>
      <path id="Path_35" data-name="Path 35" d="M114.966,96.668c0-2.774,1.845-4.939,4.117-4.939,1.265,0,2.119.641,2.119,1.815,0,1.814-2.2,2.621-4.635,2.927,0,1.066.367,1.692,1.281,1.692a2.9,2.9,0,0,0,1.905-.823l.716,1.051a4.137,4.137,0,0,1-2.849,1.1,2.535,2.535,0,0,1-2.653-2.82m1.724-1.3c1.692-.2,2.942-.746,2.942-1.646,0-.473-.259-.7-.808-.7-1.006,0-1.829,1.053-2.133,2.348" transform="translate(-3.391 -2.705)" fill="#003964"/>
      <path id="Path_36" data-name="Path 36" d="M123.285,91.928h1.524c-.091.671-.3,1.6-.426,2.119h.031c.5-1.068,1.417-2.318,2.529-2.318a1.842,1.842,0,0,1,.808.153l-.578,1.524a1.671,1.671,0,0,0-.549-.107c-1.144,0-2.287,1.449-2.973,5.29l-.122.716h-1.586Z" transform="translate(-3.597 -2.705)" fill="#003964"/>
      <path id="Path_37" data-name="Path 37" d="M133.359,89.075h5.5l-.26,1.433h-3.8l-.518,2.819h3.339l-.243,1.388h-3.339l-.793,4.512h-1.692Z" transform="translate(-3.88 -2.627)" fill="#003964"/>
      <path id="Path_38" data-name="Path 38" d="M138.586,97.141c0-2.973,1.753-5.412,4.526-5.412a6.439,6.439,0,0,1,2.347.381l-.67,3.659a26.065,26.065,0,0,0-.457,3.537h-1.555a14.777,14.777,0,0,1,.3-2.012h-.031c-.594,1.158-1.326,2.194-2.606,2.194-1.174,0-1.859-.915-1.859-2.348m5.029-3.49.077-.548a3.4,3.4,0,0,0-.854-.107c-1.524,0-2.621,1.753-2.621,3.886,0,.823.259,1.22.792,1.22,1.053,0,2.181-1.966,2.607-4.451" transform="translate(-4.087 -2.705)" fill="#003964"/>
      <path id="Path_39" data-name="Path 39" d="M147.769,91.928h1.525a16.977,16.977,0,0,1-.4,1.981h.029c.488-.913,1.328-2.18,2.759-2.18,1.16,0,1.525.823,1.525,1.755a2.421,2.421,0,0,1-.016.335h.031c.625-1.053,1.432-2.09,2.789-2.09,1.022,0,1.57.687,1.57,1.861a4.616,4.616,0,0,1-.092.883l-.869,4.832h-1.57l.839-4.65a3.761,3.761,0,0,0,.076-.685c0-.487-.152-.824-.624-.824-1.036,0-2.2,1.525-2.9,5.443l-.137.716h-1.57l.838-4.65a3.075,3.075,0,0,0,.061-.641c0-.487-.151-.869-.64-.869-.975,0-2.15,1.48-2.866,5.443l-.122.716h-1.586Z" transform="translate(-4.319 -2.705)" fill="#003964"/>
      <path id="Path_40" data-name="Path 40" d="M160.373,91.836h1.585l-1.341,7.378h-1.586Zm.107-2.211A1.017,1.017,0,0,1,161.5,88.62a1,1,0,0,1,1.021,1.005,1.012,1.012,0,0,1-1.021,1.022,1.032,1.032,0,0,1-1.022-1.022" transform="translate(-4.69 -2.614)" fill="#003964"/>
      <path id="Path_41" data-name="Path 41" d="M164.926,88.227h1.587L164.53,99.2h-1.585Z" transform="translate(-4.806 -2.602)" fill="#003964"/>
      <path id="Path_42" data-name="Path 42" d="M164.988,102.437l.579-1.267a1.987,1.987,0,0,0,.87.168c.869,0,1.4-.442,2.225-1.905l-1.479-7.5h1.662l.792,4.74c.061.412.092.854.121,1.068h.031c.076-.214.214-.671.381-1.068l2.164-4.74H174l-3.217,6.4c-1.494,3.048-2.454,4.376-4.436,4.376a2.543,2.543,0,0,1-1.357-.275" transform="translate(-4.866 -2.711)" fill="#003964"/>
      <path id="Path_43" data-name="Path 43" d="M178.11,95.12a6.017,6.017,0,0,1,5.929-6.235,4.58,4.58,0,0,1,2.881.734l-.869,1.265a3.516,3.516,0,0,0-2.119-.564c-2.362,0-4.025,2.1-4.025,4.711,0,1.692.793,2.942,2.607,2.942a3.744,3.744,0,0,0,2.424-.9l.7,1.221a5.123,5.123,0,0,1-3.277,1.112,3.951,3.951,0,0,1-4.253-4.284" transform="translate(-5.253 -2.622)" fill="#003964"/>
      <path id="Path_44" data-name="Path 44" d="M187.193,96.424c0-2.439,1.694-4.7,3.995-4.7a2.767,2.767,0,0,1,2.8,3.065c0,2.56-1.677,4.694-3.995,4.694a2.786,2.786,0,0,1-2.8-3.064m5.2-1.54c0-1.219-.442-1.89-1.325-1.89-1.389,0-2.287,1.859-2.287,3.384,0,1.113.443,1.859,1.342,1.859,1.416,0,2.27-1.875,2.27-3.354" transform="translate(-5.521 -2.705)" fill="#003964"/>
      <path id="Path_45" data-name="Path 45" d="M196.313,91.928h1.525a16.59,16.59,0,0,1-.4,1.981h.031c.487-.913,1.326-2.18,2.757-2.18,1.16,0,1.526.823,1.526,1.755a2.416,2.416,0,0,1-.016.335h.031c.624-1.053,1.432-2.09,2.788-2.09,1.022,0,1.57.687,1.57,1.861a4.688,4.688,0,0,1-.09.883l-.87,4.832H203.6l.838-4.65a3.766,3.766,0,0,0,.077-.685c0-.487-.152-.824-.625-.824-1.036,0-2.194,1.525-2.9,5.443l-.138.716h-1.57l.839-4.65a3.208,3.208,0,0,0,.06-.641c0-.487-.152-.869-.641-.869-.975,0-2.15,1.48-2.866,5.443l-.121.716h-1.586Z" transform="translate(-5.75 -2.705)" fill="#003964"/>
      <path id="Path_46" data-name="Path 46" d="M208.773,91.927h1.54c-.138.793-.259,1.281-.427,1.952h.03c.626-1.113,1.372-2.15,2.7-2.15,1.2,0,1.845,1.037,1.845,2.455,0,2.987-1.753,5.3-4.374,5.3A4.826,4.826,0,0,1,209,99.381l-.595,3.246h-1.586Zm4.04,2.485c0-.762-.214-1.281-.762-1.281-1.143,0-2.241,2.043-2.714,4.451l-.107.58a3.251,3.251,0,0,0,.9.107c1.6,0,2.683-1.677,2.683-3.857" transform="translate(-6.1 -2.705)" fill="#003964"/>
      <path id="Path_47" data-name="Path 47" d="M215.731,97.141c0-2.973,1.752-5.412,4.526-5.412a6.462,6.462,0,0,1,2.349.381l-.672,3.659a26.246,26.246,0,0,0-.457,3.537h-1.556a14.933,14.933,0,0,1,.306-2.012H220.2c-.594,1.158-1.326,2.194-2.607,2.194-1.172,0-1.858-.915-1.858-2.348m5.03-3.49.076-.548a3.4,3.4,0,0,0-.854-.107c-1.524,0-2.621,1.753-2.621,3.886,0,.823.259,1.22.793,1.22,1.052,0,2.18-1.966,2.607-4.451" transform="translate(-6.363 -2.705)" fill="#003964"/>
      <path id="Path_48" data-name="Path 48" d="M224.913,91.928h1.524c-.06.457-.243,1.4-.395,2.012h.031c.5-.9,1.34-2.211,2.864-2.211,1.037,0,1.587.687,1.587,1.845a4.187,4.187,0,0,1-.078.84l-.9,4.892h-1.569l.838-4.786a2.907,2.907,0,0,0,.061-.58c0-.534-.214-.793-.64-.793-.975,0-2.242,1.4-2.958,5.443l-.121.716h-1.587Z" transform="translate(-6.594 -2.705)" fill="#003964"/>
      <path id="Path_49" data-name="Path 49" d="M229.953,102.437l.579-1.267a1.987,1.987,0,0,0,.87.168c.869,0,1.4-.442,2.225-1.905l-1.479-7.5h1.663l.792,4.74c.061.412.092.854.121,1.068h.031c.076-.214.214-.671.381-1.068l2.164-4.74h1.662l-3.217,6.4c-1.494,3.048-2.454,4.376-4.436,4.376a2.544,2.544,0,0,1-1.357-.275" transform="translate(-6.782 -2.711)" fill="#003964"/>
    </g>
  </g>
</svg>
